<?xml version="1.0" encoding="us-ascii" standalone="no"?><svg xmlns="http://www.w3.org/2000/svg" xmlns:xlink="http://www.w3.org/1999/xlink" contentStyleType="text/css" height="464px" preserveAspectRatio="none" style="width:711px;height:464px;background:#FFFFFF;" version="1.1" viewBox="0 0 711 464" width="711px" zoomAndPan="magnify"><defs/><g><!--entity Citizen--><g id="elem_Citizen"><ellipse cx="33" cy="264.96" fill="#F1F1F1" rx="16" ry="16" style="stroke:#181818;stroke-width:0.5;"/><path d="M33,284.96 C37,284.96 40,284.96 44,280.96 C52,280.96 60,288.96 60,296.96 L60,300.96 C60,304.96 56,308.96 52,308.96 L14,308.96 C10,308.96 6,304.96 6,300.96 L6,296.96 C6,288.96 14,280.96 22,280.96 C26,284.96 29,284.96 33,284.96 " fill="#F1F1F1" style="stroke:#181818;stroke-width:0.5;"/><text fill="#000000" font-family="sans-serif" font-size="14" lengthAdjust="spacing" textLength="48" x="9" y="322.9952">Citizen</text></g><!--entity Patrol--><g id="elem_Patrol"><ellipse cx="188.47" cy="79.96" fill="#F1F1F1" rx="16" ry="16" style="stroke:#181818;stroke-width:0.5;"/><path d="M188.47,99.96 C192.47,99.96 195.47,99.96 199.47,95.96 C207.47,95.96 215.47,103.96 215.47,111.96 L215.47,115.96 C215.47,119.96 211.47,123.96 207.47,123.96 L169.47,123.96 C165.47,123.96 161.47,119.96 161.47,115.96 L161.47,111.96 C161.47,103.96 169.47,95.96 177.47,95.96 C181.47,99.96 184.47,99.96 188.47,99.96 " fill="#F1F1F1" style="stroke:#181818;stroke-width:0.5;"/><text fill="#000000" font-family="sans-serif" font-size="14" lengthAdjust="spacing" textLength="40" x="168.47" y="137.9952">Patrol</text></g><!--entity Dispatcher--><g id="elem_Dispatcher"><ellipse cx="188.47" cy="264.96" fill="#F1F1F1" rx="16" ry="16" style="stroke:#181818;stroke-width:0.5;"/><path d="M188.47,284.96 C192.47,284.96 195.47,284.96 199.47,280.96 C207.47,280.96 215.47,288.96 215.47,296.96 L215.47,300.96 C215.47,304.96 211.47,308.96 207.47,308.96 L169.47,308.96 C165.47,308.96 161.47,304.96 161.47,300.96 L161.47,296.96 C161.47,288.96 169.47,280.96 177.47,280.96 C181.47,284.96 184.47,284.96 188.47,284.96 " fill="#F1F1F1" style="stroke:#181818;stroke-width:0.5;"/><text fill="#000000" font-family="sans-serif" font-size="14" lengthAdjust="spacing" textLength="73" x="151.97" y="322.9952">Dispatcher</text></g><!--entity Admin--><g id="elem_Admin"><ellipse cx="410.77" cy="172.96" fill="#F1F1F1" rx="16" ry="16" style="stroke:#181818;stroke-width:0.5;"/><path d="M410.77,192.96 C414.77,192.96 417.77,192.96 421.77,188.96 C429.77,188.96 437.77,196.96 437.77,204.96 L437.77,208.96 C437.77,212.96 433.77,216.96 429.77,216.96 L391.77,216.96 C387.77,216.96 383.77,212.96 383.77,208.96 L383.77,204.96 C383.77,196.96 391.77,188.96 399.77,188.96 C403.77,192.96 406.77,192.96 410.77,192.96 " fill="#F1F1F1" style="stroke:#181818;stroke-width:0.5;"/><text fill="#000000" font-family="sans-serif" font-size="14" lengthAdjust="spacing" textLength="45" x="388.27" y="230.9952">Admin</text></g><g id="elem_UC_ReportCrime"><ellipse cx="188.468" cy="377.2036" fill="#F1F1F1" rx="67.968" ry="15.9936" style="stroke:#181818;stroke-width:0.5;"/><text fill="#000000" font-family="sans-serif" font-size="14" lengthAdjust="spacing" textLength="88" x="141.5052" y="381.2134">Report crime</text></g><g id="elem_UC_ViewCrime"><ellipse cx="188.4686" cy="443.1997" fill="#F1F1F1" rx="63.0986" ry="15.0197" style="stroke:#181818;stroke-width:0.5;"/><text fill="#000000" font-family="sans-serif" font-size="14" lengthAdjust="spacing" textLength="74" x="148.4686" y="447.2173">View crime</text></g><g id="elem_UC_AssignPatrol"><ellipse cx="410.7712" cy="362.1962" fill="#F1F1F1" rx="94.3312" ry="21.2662" style="stroke:#181818;stroke-width:0.5;"/><text fill="#000000" font-family="sans-serif" font-size="14" lengthAdjust="spacing" textLength="151" x="335.2712" y="365.4873">Assign patrol to crime</text></g><g id="elem_UC_UpdatePatrol"><ellipse cx="410.7697" cy="26.2039" fill="#F1F1F1" rx="89.0197" ry="20.2039" style="stroke:#181818;stroke-width:0.5;"/><text fill="#000000" font-family="sans-serif" font-size="14" lengthAdjust="spacing" textLength="139" x="341.2697" y="29.495">Update patrol status</text></g><g id="elem_UC_UpdateCrime"><ellipse cx="410.7662" cy="101.2012" fill="#F1F1F1" rx="87.7062" ry="19.9412" style="stroke:#181818;stroke-width:0.5;"/><text fill="#000000" font-family="sans-serif" font-size="14" lengthAdjust="spacing" textLength="136" x="342.7662" y="104.4923">Update crime status</text></g><g id="elem_UC_ViewPatrol"><ellipse cx="410.7748" cy="287.203" fill="#F1F1F1" rx="81.6648" ry="18.733" style="stroke:#181818;stroke-width:0.5;"/><text fill="#000000" font-family="sans-serif" font-size="14" lengthAdjust="spacing" textLength="122" x="349.7748" y="290.494">View patrol status</text></g><g id="elem_UC_ViewLogs"><ellipse cx="635.3015" cy="129.1984" fill="#F1F1F1" rx="57.9115" ry="14.7584" style="stroke:#181818;stroke-width:0.5;"/><text fill="#000000" font-family="sans-serif" font-size="14" lengthAdjust="spacing" textLength="65" x="599.8015" y="133.216">View logs</text></g><g id="elem_UC_CreateCitizen"><ellipse cx="635.299" cy="195.1998" fill="#F1F1F1" rx="70.199" ry="16.4398" style="stroke:#181818;stroke-width:0.5;"/><text fill="#000000" font-family="sans-serif" font-size="14" lengthAdjust="spacing" textLength="94" x="586.6115" y="198.9247">Create citizen</text></g><g id="elem_UC_ChangeRoles"><ellipse cx="635.299" cy="263.2038" fill="#F1F1F1" rx="69.069" ry="16.2138" style="stroke:#181818;stroke-width:0.5;"/><text fill="#000000" font-family="sans-serif" font-size="14" lengthAdjust="spacing" textLength="91" x="587.485" y="267.073">Change roles</text></g><!--reverse link Citizen to Patrol--><g id="link_Citizen_Patrol"><path d="M70.7393,233.3147 C87.1793,209.7847 98.92,194.36 120.5,169.2 C133.03,154.59 148.09,139.34 160.76,127.09 " fill="none" id="Citizen-backto-Patrol" style="stroke:#181818;stroke-width:1.0;"/><polygon fill="none" points="60.43,248.07,75.6577,236.7511,65.8208,229.8783,60.43,248.07" style="stroke:#181818;stroke-width:1.0;"/></g><!--reverse link Citizen to Dispatcher--><g id="link_Citizen_Dispatcher"><path d="M78.73,287.2 C103.89,287.2 123.76,287.2 151.55,287.2 " fill="none" id="Citizen-backto-Dispatcher" style="stroke:#181818;stroke-width:1.0;"/><polygon fill="none" points="60.73,287.2,78.73,293.2,78.73,281.2,60.73,287.2" style="stroke:#181818;stroke-width:1.0;"/></g><!--reverse link Citizen to Admin--><g id="link_Citizen_Admin"><path d="M75.1756,254.6211 C91.4656,242.5111 98.81,239.1 120.5,231.2 C212.52,197.7 330.69,194.27 382.91,194.6 " fill="none" id="Citizen-backto-Admin" style="stroke:#181818;stroke-width:1.0;"/><polygon fill="none" points="60.73,265.36,78.7553,259.4363,71.596,249.8059,60.73,265.36" style="stroke:#181818;stroke-width:1.0;"/></g><!--reverse link Patrol to Admin--><g id="link_Patrol_Admin"><path d="M232.6235,120.4192 C274.9635,138.2892 340.7,166.04 383.1,183.94 " fill="none" id="Patrol-backto-Admin" style="stroke:#181818;stroke-width:1.0;"/><polygon fill="none" points="216.04,113.42,230.2904,125.947,234.9565,114.8914,216.04,113.42" style="stroke:#181818;stroke-width:1.0;"/></g><!--reverse link Dispatcher to Admin--><g id="link_Dispatcher_Admin"><path d="M241.9603,265.2746 C286.1003,246.8446 343.4,222.92 382.92,206.41 " fill="none" id="Dispatcher-backto-Admin" style="stroke:#181818;stroke-width:1.0;"/><polygon fill="none" points="225.35,272.21,244.272,270.8114,239.6485,259.7379,225.35,272.21" style="stroke:#181818;stroke-width:1.0;"/></g><!--link Citizen to UC_ReportCrime--><g id="link_Citizen_UC_ReportCrime"><path d="M60.82,305.6 C77.67,316.9 100.03,331.42 120.5,343.2 C132.25,349.96 145.51,356.84 157.11,362.63 " fill="none" id="Citizen-UC_ReportCrime" style="stroke:#181818;stroke-width:1.0;"/></g><!--link Citizen to UC_ViewCrime--><g id="link_Citizen_UC_ViewCrime"><path d="M54.58,326.29 C69.96,352.62 93.03,386.69 120.5,410.2 C130.15,418.46 142.23,425.23 153.46,430.44 " fill="none" id="Citizen-UC_ViewCrime" style="stroke:#181818;stroke-width:1.0;"/></g><!--link Patrol to UC_UpdatePatrol--><g id="link_Patrol_UC_UpdatePatrol"><path d="M216.04,93.03 C251.75,80.72 315.87,58.59 360.52,43.19 " fill="none" id="Patrol-UC_UpdatePatrol" style="stroke:#181818;stroke-width:1.0;"/></g><!--link Patrol to UC_UpdateCrime--><g id="link_Patrol_UC_UpdateCrime"><path d="M216.04,102.08 C242.48,101.96 284.49,101.77 322.65,101.6 " fill="none" id="Patrol-UC_UpdateCrime" style="stroke:#181818;stroke-width:1.0;"/></g><!--link Dispatcher to UC_ViewPatrol--><g id="link_Dispatcher_UC_ViewPatrol"><path d="M225.35,287.2 C253.27,287.2 293.11,287.2 328.62,287.2 " fill="none" id="Dispatcher-UC_ViewPatrol" style="stroke:#181818;stroke-width:1.0;"/></g><!--link Dispatcher to UC_AssignPatrol--><g id="link_Dispatcher_UC_AssignPatrol"><path d="M225.35,299.42 C261.2,311.62 316.68,330.51 357.44,344.38 " fill="none" id="Dispatcher-UC_AssignPatrol" style="stroke:#181818;stroke-width:1.0;"/></g><!--link Admin to UC_ViewLogs--><g id="link_Admin_UC_ViewLogs"><path d="M438.61,187.24 C477.91,175.58 551.31,153.81 596.19,140.5 " fill="none" id="Admin-UC_ViewLogs" style="stroke:#181818;stroke-width:1.0;"/></g><!--link Admin to UC_CreateCitizen--><g id="link_Admin_UC_CreateCitizen"><path d="M438.61,195.2 C469.71,195.2 522.14,195.2 564.91,195.2 " fill="none" id="Admin-UC_CreateCitizen" style="stroke:#181818;stroke-width:1.0;"/></g><!--link Admin to UC_ChangeRoles--><g id="link_Admin_UC_ChangeRoles"><path d="M438.61,203.4 C476.64,215.02 546.6,236.4 591.75,250.2 " fill="none" id="Admin-UC_ChangeRoles" style="stroke:#181818;stroke-width:1.0;"/></g><!--SRC=[TP8zRiCm34PtdOB8dXjq2TonGv4YNGl2PcsYjcH8388KFNnj_KIIwuvw_1ujaHxfKq0CMEu7WOujjS96A_V5UaQB4s0hnhx9VIJ06papaLAUGSF2twJZwHN5cZ4UdjdDAEr0De9JDx5MAYhmz7Cy9gDYXLZnu0S3IfI5aYfrTTIY8pYSQJPMeBKyqG7GmQNv2AnPKGw-Cztgs4esePDpt6kOmqMMmLL2gCPtFPpBtA5GSfoWN5qoGkqVm_VU5VQkljj_hMox-_He-YhqifnpfB7aBn1Ma7A1fhNdy82w9rY-GO-MWPrNfFBQb_rifbzNyi3JgWElfhHJYKxnB-H-qVfJgtQb_6zJM7uS9QpVNbNoKty1]--></g></svg>