<?xml version="1.0" encoding="us-ascii" standalone="no"?><svg xmlns="http://www.w3.org/2000/svg" xmlns:xlink="http://www.w3.org/1999/xlink" contentStyleType="text/css" height="566px" preserveAspectRatio="none" style="width:1090px;height:566px;background:#FFFFFF;" version="1.1" viewBox="0 0 1090 566" width="1090px" zoomAndPan="magnify"><defs/><g><!--cluster PostgreSQL--><g id="cluster_PostgreSQL"><path d="M8.5,6 L92.5,6 A3.75,3.75 0 0 1 95,8.5 L102,28.4883 L626.5,28.4883 A2.5,2.5 0 0 1 629,30.9883 L629,557.27 A2.5,2.5 0 0 1 626.5,559.77 L8.5,559.77 A2.5,2.5 0 0 1 6,557.27 L6,8.5 A2.5,2.5 0 0 1 8.5,6 " fill="none" style="stroke:#000000;stroke-width:1.5;"/><line style="stroke:#000000;stroke-width:1.5;" x1="6" x2="102" y1="28.4883" y2="28.4883"/><text fill="#000000" font-family="sans-serif" font-size="14" font-weight="bold" lengthAdjust="spacing" textLength="83" x="10" y="21.5352">PostgreSQL</text></g><!--cluster Redis--><g id="cluster_Redis"><path d="M655.5,55.47 L696.5,55.47 A3.75,3.75 0 0 1 699,57.97 L706,77.9583 L1080.5,77.9583 A2.5,2.5 0 0 1 1083,80.4583 L1083,201.43 A2.5,2.5 0 0 1 1080.5,203.93 L655.5,203.93 A2.5,2.5 0 0 1 653,201.43 L653,57.97 A2.5,2.5 0 0 1 655.5,55.47 " fill="none" style="stroke:#000000;stroke-width:1.5;"/><line style="stroke:#000000;stroke-width:1.5;" x1="653" x2="706" y1="77.9583" y2="77.9583"/><text fill="#000000" font-family="sans-serif" font-size="14" font-weight="bold" lengthAdjust="spacing" textLength="40" x="657" y="71.0052">Redis</text></g><!--class crime_status--><g id="elem_crime_status"><rect codeLine="8" fill="#F1F1F1" height="97.4648" id="crime_status" rx="2.5" ry="2.5" style="stroke:#181818;stroke-width:0.5;" width="118" x="38" y="90.47"/><ellipse cx="53" cy="106.47" fill="#EB937F" rx="11" ry="11" style="stroke:#181818;stroke-width:1.0;"/><path d="M56.6143,112.97 L48.8945,112.97 L48.8945,100.5769 L56.6143,100.5769 L56.6143,102.7351 L51.3433,102.7351 L51.3433,105.408 L56.1162,105.408 L56.1162,107.5662 L51.3433,107.5662 L51.3433,110.8118 L56.6143,110.8118 Z " fill="#000000"/><text fill="#000000" font-family="sans-serif" font-size="14" lengthAdjust="spacing" textLength="86" x="67" y="111.761">crime_status</text><line style="stroke:#181818;stroke-width:0.5;" x1="39" x2="155" y1="122.47" y2="122.47"/><text fill="#000000" font-family="sans-serif" font-size="14" lengthAdjust="spacing" textLength="30" x="44" y="140.0052">NEW</text><text fill="#000000" font-family="sans-serif" font-size="14" lengthAdjust="spacing" textLength="68" x="44" y="156.4934">ASSIGNED</text><text fill="#000000" font-family="sans-serif" font-size="14" lengthAdjust="spacing" textLength="70" x="44" y="172.9817">RESOLVED</text><line style="stroke:#181818;stroke-width:0.5;" x1="39" x2="155" y1="179.9348" y2="179.9348"/></g><!--class patrol_status--><g id="elem_patrol_status"><rect codeLine="14" fill="#F1F1F1" height="80.9766" id="patrol_status" rx="2.5" ry="2.5" style="stroke:#181818;stroke-width:0.5;" width="121" x="191.5" y="98.71"/><ellipse cx="206.5" cy="114.71" fill="#EB937F" rx="11" ry="11" style="stroke:#181818;stroke-width:1.0;"/><path d="M210.1143,121.21 L202.3945,121.21 L202.3945,108.8169 L210.1143,108.8169 L210.1143,110.9751 L204.8433,110.9751 L204.8433,113.648 L209.6162,113.648 L209.6162,115.8062 L204.8433,115.8062 L204.8433,119.0518 L210.1143,119.0518 Z " fill="#000000"/><text fill="#000000" font-family="sans-serif" font-size="14" lengthAdjust="spacing" textLength="89" x="220.5" y="120.001">patrol_status</text><line style="stroke:#181818;stroke-width:0.5;" x1="192.5" x2="311.5" y1="130.71" y2="130.71"/><text fill="#000000" font-family="sans-serif" font-size="14" lengthAdjust="spacing" textLength="73" x="197.5" y="148.2452">AVAILABLE</text><text fill="#000000" font-family="sans-serif" font-size="14" lengthAdjust="spacing" textLength="35" x="197.5" y="164.7334">BUSY</text><line style="stroke:#181818;stroke-width:0.5;" x1="192.5" x2="311.5" y1="171.6866" y2="171.6866"/></g><!--class users--><g id="elem_users"><rect codeLine="20" fill="#F1F1F1" height="196.3945" id="users" rx="2.5" ry="2.5" style="stroke:#181818;stroke-width:0.5;" width="203" x="378.5" y="41"/><ellipse cx="457.25" cy="57" fill="#FFAAAA" rx="11" ry="11" style="stroke:#181818;stroke-width:1.0;"/><path d="M458.5918,64.25 L456.1431,64.25 L456.1431,53.9985 L452.9971,53.9985 L452.9971,51.8569 L461.7378,51.8569 L461.7378,53.9985 L458.5918,53.9985 Z " fill="#000000"/><text fill="#000000" font-family="sans-serif" font-size="14" lengthAdjust="spacing" textLength="37" x="477.75" y="62.291">users</text><line style="stroke:#181818;stroke-width:0.5;" x1="379.5" x2="580.5" y1="73" y2="73"/><text fill="#000000" font-family="sans-serif" font-size="14" lengthAdjust="spacing" textLength="90" x="384.5" y="90.5352">id : UUID [PK]</text><text fill="#000000" font-family="sans-serif" font-size="14" lengthAdjust="spacing" textLength="191" x="384.5" y="107.0234">username : string &#171;UNIQUE&#187;</text><text fill="#000000" font-family="sans-serif" font-size="14" lengthAdjust="spacing" textLength="158" x="384.5" y="123.5117">password_hash : string</text><text fill="#000000" font-family="sans-serif" font-size="14" lengthAdjust="spacing" textLength="79" x="384.5" y="140">role : string</text><text fill="#000000" font-family="sans-serif" font-size="14" lengthAdjust="spacing" textLength="155" x="384.5" y="156.4883">created_at : timestamp</text><text fill="#000000" font-family="sans-serif" font-size="14" lengthAdjust="spacing" textLength="161" x="384.5" y="172.9766">updated_at : timestamp</text><text fill="#000000" font-family="sans-serif" font-size="14" lengthAdjust="spacing" textLength="150" x="384.5" y="189.4648">last_login : timestamp</text><text fill="#000000" font-family="sans-serif" font-size="14" lengthAdjust="spacing" textLength="162" x="384.5" y="205.9531">last_activity : timestamp</text><text fill="#000000" font-family="sans-serif" font-size="14" lengthAdjust="spacing" textLength="135" x="384.5" y="222.4414">status: crime_status</text><line style="stroke:#181818;stroke-width:0.5;" x1="379.5" x2="580.5" y1="229.3945" y2="229.3945"/></g><!--class patrol_profile--><g id="elem_patrol_profile"><rect codeLine="32" fill="#F1F1F1" height="212.8828" id="patrol_profile" rx="2.5" ry="2.5" style="stroke:#181818;stroke-width:0.5;" width="195" x="207.5" y="322.64"/><ellipse cx="254.25" cy="338.64" fill="#FFAAAA" rx="11" ry="11" style="stroke:#181818;stroke-width:1.0;"/><path d="M255.5918,345.89 L253.1431,345.89 L253.1431,335.6385 L249.9971,335.6385 L249.9971,333.4969 L258.7378,333.4969 L258.7378,335.6385 L255.5918,335.6385 Z " fill="#000000"/><text fill="#000000" font-family="sans-serif" font-size="14" lengthAdjust="spacing" textLength="93" x="274.75" y="343.931">patrol_profile</text><line style="stroke:#181818;stroke-width:0.5;" x1="208.5" x2="401.5" y1="354.64" y2="354.64"/><text fill="#000000" font-family="sans-serif" font-size="14" lengthAdjust="spacing" textLength="152" x="213.5" y="372.1752">user_id : UUID [PK, FK]</text><text fill="#000000" font-family="sans-serif" font-size="14" lengthAdjust="spacing" textLength="183" x="213.5" y="388.6634">officer_id: string &#171;UNIQUE&#187;</text><text fill="#000000" font-family="sans-serif" font-size="14" lengthAdjust="spacing" textLength="141" x="213.5" y="405.1517">officer_name : string</text><text fill="#000000" font-family="sans-serif" font-size="14" lengthAdjust="spacing" textLength="91" x="213.5" y="421.64">street : string</text><text fill="#000000" font-family="sans-serif" font-size="14" lengthAdjust="spacing" textLength="75" x="213.5" y="438.1283">city : string</text><text fill="#000000" font-family="sans-serif" font-size="14" lengthAdjust="spacing" textLength="85" x="213.5" y="454.6166">state : string</text><text fill="#000000" font-family="sans-serif" font-size="14" lengthAdjust="spacing" textLength="112" x="213.5" y="471.1048">latitude : double</text><text fill="#000000" font-family="sans-serif" font-size="14" lengthAdjust="spacing" textLength="126" x="213.5" y="487.5931">longitude : double</text><text fill="#000000" font-family="sans-serif" font-size="14" lengthAdjust="spacing" textLength="155" x="213.5" y="504.0814">created_at : timestamp</text><text fill="#000000" font-family="sans-serif" font-size="14" lengthAdjust="spacing" textLength="161" x="213.5" y="520.5697">updated_at : timestamp</text><line style="stroke:#181818;stroke-width:0.5;" x1="208.5" x2="401.5" y1="527.5228" y2="527.5228"/></g><!--class crime--><g id="elem_crime"><rect codeLine="45" fill="#F1F1F1" height="229.3711" id="crime" rx="2.5" ry="2.5" style="stroke:#181818;stroke-width:0.5;" width="176" x="437" y="314.4"/><ellipse cx="501.75" cy="330.4" fill="#FFAAAA" rx="11" ry="11" style="stroke:#181818;stroke-width:1.0;"/><path d="M503.0918,337.65 L500.6431,337.65 L500.6431,327.3985 L497.4971,327.3985 L497.4971,325.2569 L506.2378,325.2569 L506.2378,327.3985 L503.0918,327.3985 Z " fill="#000000"/><text fill="#000000" font-family="sans-serif" font-size="14" lengthAdjust="spacing" textLength="38" x="522.25" y="335.691">crime</text><line style="stroke:#181818;stroke-width:0.5;" x1="438" x2="612" y1="346.4" y2="346.4"/><text fill="#000000" font-family="sans-serif" font-size="14" lengthAdjust="spacing" textLength="90" x="443" y="363.9352">id : UUID [PK]</text><text fill="#000000" font-family="sans-serif" font-size="14" lengthAdjust="spacing" textLength="154" x="443" y="380.4234">reporter_id : UUID [FK]</text><text fill="#000000" font-family="sans-serif" font-size="14" lengthAdjust="spacing" textLength="129" x="443" y="396.9117">description : string</text><text fill="#000000" font-family="sans-serif" font-size="14" lengthAdjust="spacing" textLength="91" x="443" y="413.4">street : string</text><text fill="#000000" font-family="sans-serif" font-size="14" lengthAdjust="spacing" textLength="75" x="443" y="429.8883">city : string</text><text fill="#000000" font-family="sans-serif" font-size="14" lengthAdjust="spacing" textLength="85" x="443" y="446.3766">state : string</text><text fill="#000000" font-family="sans-serif" font-size="14" lengthAdjust="spacing" textLength="112" x="443" y="462.8648">latitude : double</text><text fill="#000000" font-family="sans-serif" font-size="14" lengthAdjust="spacing" textLength="126" x="443" y="479.3531">longitude : double</text><text fill="#000000" font-family="sans-serif" font-size="14" lengthAdjust="spacing" textLength="164" x="443" y="495.8414">reported_at : timestamp</text><text fill="#000000" font-family="sans-serif" font-size="14" lengthAdjust="spacing" textLength="155" x="443" y="512.3297">created_at : timestamp</text><text fill="#000000" font-family="sans-serif" font-size="14" lengthAdjust="spacing" textLength="161" x="443" y="528.818">updated_at : timestamp</text><line style="stroke:#181818;stroke-width:0.5;" x1="438" x2="612" y1="535.7711" y2="535.7711"/></g><!--class event_log--><g id="elem_event_log"><rect codeLine="59" fill="#F1F1F1" height="130.4414" id="event_log" rx="2.5" ry="2.5" style="stroke:#181818;stroke-width:0.5;" width="151" x="21.5" y="363.86"/><ellipse cx="60.35" cy="379.86" fill="#FFAAAA" rx="11" ry="11" style="stroke:#181818;stroke-width:1.0;"/><path d="M61.6918,387.11 L59.2431,387.11 L59.2431,376.8585 L56.0971,376.8585 L56.0971,374.7169 L64.8378,374.7169 L64.8378,376.8585 L61.6918,376.8585 Z " fill="#000000"/><text fill="#000000" font-family="sans-serif" font-size="14" lengthAdjust="spacing" textLength="66" x="79.65" y="385.151">event_log</text><line style="stroke:#181818;stroke-width:0.5;" x1="22.5" x2="171.5" y1="395.86" y2="395.86"/><text fill="#000000" font-family="sans-serif" font-size="14" lengthAdjust="spacing" textLength="90" x="27.5" y="413.3952">id : UUID [PK]</text><text fill="#000000" font-family="sans-serif" font-size="14" lengthAdjust="spacing" textLength="127" x="27.5" y="429.8834">user_id : UUID [FK]</text><text fill="#000000" font-family="sans-serif" font-size="14" lengthAdjust="spacing" textLength="95" x="27.5" y="446.3717">service: string</text><text fill="#000000" font-family="sans-serif" font-size="14" lengthAdjust="spacing" textLength="109" x="27.5" y="462.86">message: JSONB</text><text fill="#000000" font-family="sans-serif" font-size="14" lengthAdjust="spacing" textLength="139" x="27.5" y="479.3483">created_at: datetime</text><line style="stroke:#181818;stroke-width:0.5;" x1="22.5" x2="171.5" y1="486.3014" y2="486.3014"/></g><!--class Location--><g id="elem_Location"><rect codeLine="84" fill="#F1F1F1" height="97.4648" id="Location" rx="2.5" ry="2.5" style="stroke:#181818;stroke-width:0.5;" width="397" x="669.5" y="90.47"/><ellipse cx="834.75" cy="106.47" fill="#FFD700" rx="11" ry="11" style="stroke:#181818;stroke-width:1.0;"/><path d="M830.2212,100.5769 L832.6699,100.5769 L832.6699,105.4744 L836.5049,100.5769 L839.2773,100.5769 L835.3677,105.4578 L839.4185,112.97 L836.6958,112.97 L833.7573,107.3919 L832.6699,108.7698 L832.6699,112.97 L830.2212,112.97 Z " fill="#000000"/><text fill="#000000" font-family="sans-serif" font-size="14" lengthAdjust="spacing" textLength="58" x="855.25" y="111.761">Location</text><line style="stroke:#181818;stroke-width:0.5;" x1="670.5" x2="1065.5" y1="122.47" y2="122.47"/><text fill="#000000" font-family="sans-serif" font-size="14" lengthAdjust="spacing" textLength="158" x="675.5" y="140.0052">key = user:{id}:location</text><text fill="#000000" font-family="sans-serif" font-size="14" lengthAdjust="spacing" textLength="385" x="675.5" y="156.4934">value = street, city, state, latitude, longtitude, timestamp</text><text fill="#000000" font-family="sans-serif" font-size="14" lengthAdjust="spacing" textLength="122" x="675.5" y="172.9817">TTL = 30 seconds</text><line style="stroke:#181818;stroke-width:0.5;" x1="670.5" x2="1065.5" y1="179.9348" y2="179.9348"/></g><!--link users to patrol_profile--><g id="link_users_patrol_profile"><path codeLine="67" d="M420.75,237.67 C404.19,264.91 386.12,294.64 369.29,322.33 " fill="none" id="users-patrol_profile" style="stroke:#181818;stroke-width:1.0;"/><polygon fill="#000000" points="400.1529,280.3279,407.3625,274.1252,402.3397,271.0721,400.1529,280.3279" style="stroke:#000000;stroke-width:1.0;"/><text fill="#000000" font-family="sans-serif" font-size="13" lengthAdjust="spacing" textLength="70" x="411.75" y="280.9684">has_profile</text><text fill="#000000" font-family="sans-serif" font-size="13" lengthAdjust="spacing" textLength="8" x="408.1051" y="258.0321">1</text><text fill="#000000" font-family="sans-serif" font-size="13" lengthAdjust="spacing" textLength="24" x="348.9666" y="311.876">0..1</text></g><!--link users to crime--><g id="link_users_crime"><path codeLine="68" d="M495.23,237.67 C499.07,262.22 503.23,288.79 507.18,314.07 " fill="none" id="users-crime" style="stroke:#181818;stroke-width:1.0;"/><polygon fill="#000000" points="508.2727,280.9952,509.7785,271.6046,503.9713,272.5129,508.2727,280.9952" style="stroke:#000000;stroke-width:1.0;"/><text fill="#000000" font-family="sans-serif" font-size="13" lengthAdjust="spacing" textLength="45" x="516.5" y="280.9684">reports</text><text fill="#000000" font-family="sans-serif" font-size="13" lengthAdjust="spacing" textLength="8" x="488.0547" y="258.0321">1</text><text fill="#000000" font-family="sans-serif" font-size="13" lengthAdjust="spacing" textLength="22" x="483.3337" y="303.7997">0..*</text></g><!--SRC=[pPLHRzem4CVV-HHkzW2Pqeff3vDGXmGYJAmPj0rqcgO9kOa1Zn17jiDQ8RxxBdRY90jqqxI7-GLpzxTzz_FvSX6I5Oq9alWn8fqd6mKH5W8zeUjhr9axhyRZ0GmRzVkjYrowtGl9U4Dyaub7xxfT9KvmiCLhWgnR9kIQ4__Eiz2XrMeX66qqoa_T44JYTAUisGG5dEx8KaWiKt5GvcnCtSzcFl3zoOUfEpA6UzUVUG-vuTWgzqgmv2ngR3Pu64oymT1pZMMuyByKgzMlff4AmeMDofKqH3sqM4n6wEljpJTZpdGntX5m2ibfl0OUY-daRk42Y4AK0AaVZ8VB3HORepHk29GqhG4dM99mYINu9921N7P9UN0IlkI6ov7BYArfVDwD0qdtL3wVL6XolTgbL2bhJ3dcXBCLZOXzg75PrfWvQ5pXnbOh6YZ9I-0ALOrm9KHEY3n1JkVKK0ElfZd2aieqp3mXIo6dqiFYzHdNtzzDZPvYQ_-snZX969TrdbMM8H6mKo8fY_ydI7dOPodz8uXaJs9LwlOVFTPp4C6rXrfhf0xd2cXcFVJHdqs79uA7l66M1LYDJVKFPBsnqEKbihfNLp2hFnQ80jg1-TS_lUorfLyWg3LF0KeuemsDz1EmPwCX2bWKaI2xVW5sqtrpTzPwspfce-ku6JGFc1bdDZIRsUDtK4t2YYC7fxbLxBz2Apq6MyEJaQemquuZ_Agixab81TgIPr5-HfJDodjnyGNoM82pLAez6fQXzohOte66nrwKQunWZwEKW4G_2aSz0aSNlMEAt555NSoRXJcVUx35sova7x0uBBhYiVKJ]--></g></svg>