<?xml version="1.0" encoding="us-ascii" standalone="no"?><svg xmlns="http://www.w3.org/2000/svg" xmlns:xlink="http://www.w3.org/1999/xlink" contentStyleType="text/css" height="583px" preserveAspectRatio="none" style="width:1090px;height:583px;background:#FFFFFF;" version="1.1" viewBox="0 0 1090 583" width="1090px" zoomAndPan="magnify"><defs/><g><!--cluster PostgreSQL--><g id="cluster_PostgreSQL"><path d="M8.5,6 L92.5,6 A3.75,3.75 0 0 1 95,8.5 L102,28.4883 L626.5,28.4883 A2.5,2.5 0 0 1 629,30.9883 L629,573.75 A2.5,2.5 0 0 1 626.5,576.25 L8.5,576.25 A2.5,2.5 0 0 1 6,573.75 L6,8.5 A2.5,2.5 0 0 1 8.5,6 " fill="none" style="stroke:#000000;stroke-width:1.5;"/><line style="stroke:#000000;stroke-width:1.5;" x1="6" x2="102" y1="28.4883" y2="28.4883"/><text fill="#000000" font-family="sans-serif" font-size="14" font-weight="bold" lengthAdjust="spacing" textLength="83" x="10" y="21.5352">PostgreSQL</text></g><!--cluster Redis--><g id="cluster_Redis"><path d="M655.5,55.46 L696.5,55.46 A3.75,3.75 0 0 1 699,57.96 L706,77.9483 L1080.5,77.9483 A2.5,2.5 0 0 1 1083,80.4483 L1083,201.43 A2.5,2.5 0 0 1 1080.5,203.93 L655.5,203.93 A2.5,2.5 0 0 1 653,201.43 L653,57.96 A2.5,2.5 0 0 1 655.5,55.46 " fill="none" style="stroke:#000000;stroke-width:1.5;"/><line style="stroke:#000000;stroke-width:1.5;" x1="653" x2="706" y1="77.9483" y2="77.9483"/><text fill="#000000" font-family="sans-serif" font-size="14" font-weight="bold" lengthAdjust="spacing" textLength="40" x="657" y="70.9952">Redis</text></g><!--class crime_status--><g id="elem_crime_status"><rect codeLine="8" fill="#F1F1F1" height="97.4648" id="crime_status" rx="2.5" ry="2.5" style="stroke:#181818;stroke-width:0.5;" width="118" x="38" y="90.46"/><ellipse cx="53" cy="106.46" fill="#EB937F" rx="11" ry="11" style="stroke:#181818;stroke-width:1.0;"/><path d="M56.6143,112.96 L48.8945,112.96 L48.8945,100.5669 L56.6143,100.5669 L56.6143,102.7251 L51.3433,102.7251 L51.3433,105.398 L56.1162,105.398 L56.1162,107.5562 L51.3433,107.5562 L51.3433,110.8018 L56.6143,110.8018 Z " fill="#000000"/><text fill="#000000" font-family="sans-serif" font-size="14" lengthAdjust="spacing" textLength="86" x="67" y="111.751">crime_status</text><line style="stroke:#181818;stroke-width:0.5;" x1="39" x2="155" y1="122.46" y2="122.46"/><text fill="#000000" font-family="sans-serif" font-size="14" lengthAdjust="spacing" textLength="30" x="44" y="139.9952">NEW</text><text fill="#000000" font-family="sans-serif" font-size="14" lengthAdjust="spacing" textLength="68" x="44" y="156.4834">ASSIGNED</text><text fill="#000000" font-family="sans-serif" font-size="14" lengthAdjust="spacing" textLength="70" x="44" y="172.9717">RESOLVED</text><line style="stroke:#181818;stroke-width:0.5;" x1="39" x2="155" y1="179.9248" y2="179.9248"/></g><!--class patrol_status--><g id="elem_patrol_status"><rect codeLine="14" fill="#F1F1F1" height="80.9766" id="patrol_status" rx="2.5" ry="2.5" style="stroke:#181818;stroke-width:0.5;" width="121" x="191.5" y="98.71"/><ellipse cx="206.5" cy="114.71" fill="#EB937F" rx="11" ry="11" style="stroke:#181818;stroke-width:1.0;"/><path d="M210.1143,121.21 L202.3945,121.21 L202.3945,108.8169 L210.1143,108.8169 L210.1143,110.9751 L204.8433,110.9751 L204.8433,113.648 L209.6162,113.648 L209.6162,115.8062 L204.8433,115.8062 L204.8433,119.0518 L210.1143,119.0518 Z " fill="#000000"/><text fill="#000000" font-family="sans-serif" font-size="14" lengthAdjust="spacing" textLength="89" x="220.5" y="120.001">patrol_status</text><line style="stroke:#181818;stroke-width:0.5;" x1="192.5" x2="311.5" y1="130.71" y2="130.71"/><text fill="#000000" font-family="sans-serif" font-size="14" lengthAdjust="spacing" textLength="73" x="197.5" y="148.2452">AVAILABLE</text><text fill="#000000" font-family="sans-serif" font-size="14" lengthAdjust="spacing" textLength="35" x="197.5" y="164.7334">BUSY</text><line style="stroke:#181818;stroke-width:0.5;" x1="192.5" x2="311.5" y1="171.6866" y2="171.6866"/></g><!--class users--><g id="elem_users"><rect codeLine="20" fill="#F1F1F1" height="196.3945" id="users" rx="2.5" ry="2.5" style="stroke:#181818;stroke-width:0.5;" width="203" x="378.5" y="41"/><ellipse cx="457.25" cy="57" fill="#FFAAAA" rx="11" ry="11" style="stroke:#181818;stroke-width:1.0;"/><path d="M458.5918,64.25 L456.1431,64.25 L456.1431,53.9985 L452.9971,53.9985 L452.9971,51.8569 L461.7378,51.8569 L461.7378,53.9985 L458.5918,53.9985 Z " fill="#000000"/><text fill="#000000" font-family="sans-serif" font-size="14" lengthAdjust="spacing" textLength="37" x="477.75" y="62.291">users</text><line style="stroke:#181818;stroke-width:0.5;" x1="379.5" x2="580.5" y1="73" y2="73"/><text fill="#000000" font-family="sans-serif" font-size="14" lengthAdjust="spacing" textLength="90" x="384.5" y="90.5352">id : UUID [PK]</text><text fill="#000000" font-family="sans-serif" font-size="14" lengthAdjust="spacing" textLength="191" x="384.5" y="107.0234">username : string &#171;UNIQUE&#187;</text><text fill="#000000" font-family="sans-serif" font-size="14" lengthAdjust="spacing" textLength="158" x="384.5" y="123.5117">password_hash : string</text><text fill="#000000" font-family="sans-serif" font-size="14" lengthAdjust="spacing" textLength="79" x="384.5" y="140">role : string</text><text fill="#000000" font-family="sans-serif" font-size="14" lengthAdjust="spacing" textLength="155" x="384.5" y="156.4883">created_at : timestamp</text><text fill="#000000" font-family="sans-serif" font-size="14" lengthAdjust="spacing" textLength="161" x="384.5" y="172.9766">updated_at : timestamp</text><text fill="#000000" font-family="sans-serif" font-size="14" lengthAdjust="spacing" textLength="150" x="384.5" y="189.4648">last_login : timestamp</text><text fill="#000000" font-family="sans-serif" font-size="14" lengthAdjust="spacing" textLength="162" x="384.5" y="205.9531">last_activity : timestamp</text><text fill="#000000" font-family="sans-serif" font-size="14" lengthAdjust="spacing" textLength="135" x="384.5" y="222.4414">status: crime_status</text><line style="stroke:#181818;stroke-width:0.5;" x1="379.5" x2="580.5" y1="229.3945" y2="229.3945"/></g><!--class patrol_profile--><g id="elem_patrol_profile"><rect codeLine="32" fill="#F1F1F1" height="212.8828" id="patrol_profile" rx="2.5" ry="2.5" style="stroke:#181818;stroke-width:0.5;" width="195" x="207.5" y="330.88"/><ellipse cx="254.25" cy="346.88" fill="#FFAAAA" rx="11" ry="11" style="stroke:#181818;stroke-width:1.0;"/><path d="M255.5918,354.13 L253.1431,354.13 L253.1431,343.8785 L249.9971,343.8785 L249.9971,341.7369 L258.7378,341.7369 L258.7378,343.8785 L255.5918,343.8785 Z " fill="#000000"/><text fill="#000000" font-family="sans-serif" font-size="14" lengthAdjust="spacing" textLength="93" x="274.75" y="352.171">patrol_profile</text><line style="stroke:#181818;stroke-width:0.5;" x1="208.5" x2="401.5" y1="362.88" y2="362.88"/><text fill="#000000" font-family="sans-serif" font-size="14" lengthAdjust="spacing" textLength="152" x="213.5" y="380.4152">user_id : UUID [PK, FK]</text><text fill="#000000" font-family="sans-serif" font-size="14" lengthAdjust="spacing" textLength="183" x="213.5" y="396.9034">officer_id: string &#171;UNIQUE&#187;</text><text fill="#000000" font-family="sans-serif" font-size="14" lengthAdjust="spacing" textLength="141" x="213.5" y="413.3917">officer_name : string</text><text fill="#000000" font-family="sans-serif" font-size="14" lengthAdjust="spacing" textLength="91" x="213.5" y="429.88">street : string</text><text fill="#000000" font-family="sans-serif" font-size="14" lengthAdjust="spacing" textLength="75" x="213.5" y="446.3683">city : string</text><text fill="#000000" font-family="sans-serif" font-size="14" lengthAdjust="spacing" textLength="85" x="213.5" y="462.8566">state : string</text><text fill="#000000" font-family="sans-serif" font-size="14" lengthAdjust="spacing" textLength="112" x="213.5" y="479.3448">latitude : double</text><text fill="#000000" font-family="sans-serif" font-size="14" lengthAdjust="spacing" textLength="126" x="213.5" y="495.8331">longitude : double</text><text fill="#000000" font-family="sans-serif" font-size="14" lengthAdjust="spacing" textLength="155" x="213.5" y="512.3214">created_at : timestamp</text><text fill="#000000" font-family="sans-serif" font-size="14" lengthAdjust="spacing" textLength="161" x="213.5" y="528.8097">updated_at : timestamp</text><line style="stroke:#181818;stroke-width:0.5;" x1="208.5" x2="401.5" y1="535.7628" y2="535.7628"/></g><!--class crime--><g id="elem_crime"><rect codeLine="45" fill="#F1F1F1" height="245.8594" id="crime" rx="2.5" ry="2.5" style="stroke:#181818;stroke-width:0.5;" width="176" x="437" y="314.39"/><ellipse cx="501.75" cy="330.39" fill="#FFAAAA" rx="11" ry="11" style="stroke:#181818;stroke-width:1.0;"/><path d="M503.0918,337.64 L500.6431,337.64 L500.6431,327.3885 L497.4971,327.3885 L497.4971,325.2469 L506.2378,325.2469 L506.2378,327.3885 L503.0918,327.3885 Z " fill="#000000"/><text fill="#000000" font-family="sans-serif" font-size="14" lengthAdjust="spacing" textLength="38" x="522.25" y="335.681">crime</text><line style="stroke:#181818;stroke-width:0.5;" x1="438" x2="612" y1="346.39" y2="346.39"/><text fill="#000000" font-family="sans-serif" font-size="14" lengthAdjust="spacing" textLength="90" x="443" y="363.9252">id : UUID [PK]</text><text fill="#000000" font-family="sans-serif" font-size="14" lengthAdjust="spacing" textLength="154" x="443" y="380.4134">reporter_id : UUID [FK]</text><text fill="#000000" font-family="sans-serif" font-size="14" lengthAdjust="spacing" textLength="138" x="443" y="396.9017">patrol_id : UUID [FK]</text><text fill="#000000" font-family="sans-serif" font-size="14" lengthAdjust="spacing" textLength="129" x="443" y="413.39">description : string</text><text fill="#000000" font-family="sans-serif" font-size="14" lengthAdjust="spacing" textLength="91" x="443" y="429.8783">street : string</text><text fill="#000000" font-family="sans-serif" font-size="14" lengthAdjust="spacing" textLength="75" x="443" y="446.3666">city : string</text><text fill="#000000" font-family="sans-serif" font-size="14" lengthAdjust="spacing" textLength="85" x="443" y="462.8548">state : string</text><text fill="#000000" font-family="sans-serif" font-size="14" lengthAdjust="spacing" textLength="112" x="443" y="479.3431">latitude : double</text><text fill="#000000" font-family="sans-serif" font-size="14" lengthAdjust="spacing" textLength="126" x="443" y="495.8314">longitude : double</text><text fill="#000000" font-family="sans-serif" font-size="14" lengthAdjust="spacing" textLength="164" x="443" y="512.3197">reported_at : timestamp</text><text fill="#000000" font-family="sans-serif" font-size="14" lengthAdjust="spacing" textLength="155" x="443" y="528.808">created_at : timestamp</text><text fill="#000000" font-family="sans-serif" font-size="14" lengthAdjust="spacing" textLength="161" x="443" y="545.2963">updated_at : timestamp</text><line style="stroke:#181818;stroke-width:0.5;" x1="438" x2="612" y1="552.2494" y2="552.2494"/></g><!--class event_log--><g id="elem_event_log"><rect codeLine="60" fill="#F1F1F1" height="130.4414" id="event_log" rx="2.5" ry="2.5" style="stroke:#181818;stroke-width:0.5;" width="151" x="21.5" y="372.1"/><ellipse cx="60.35" cy="388.1" fill="#FFAAAA" rx="11" ry="11" style="stroke:#181818;stroke-width:1.0;"/><path d="M61.6918,395.35 L59.2431,395.35 L59.2431,385.0985 L56.0971,385.0985 L56.0971,382.9569 L64.8378,382.9569 L64.8378,385.0985 L61.6918,385.0985 Z " fill="#000000"/><text fill="#000000" font-family="sans-serif" font-size="14" lengthAdjust="spacing" textLength="66" x="79.65" y="393.391">event_log</text><line style="stroke:#181818;stroke-width:0.5;" x1="22.5" x2="171.5" y1="404.1" y2="404.1"/><text fill="#000000" font-family="sans-serif" font-size="14" lengthAdjust="spacing" textLength="90" x="27.5" y="421.6352">id : UUID [PK]</text><text fill="#000000" font-family="sans-serif" font-size="14" lengthAdjust="spacing" textLength="127" x="27.5" y="438.1234">user_id : UUID [FK]</text><text fill="#000000" font-family="sans-serif" font-size="14" lengthAdjust="spacing" textLength="95" x="27.5" y="454.6117">service: string</text><text fill="#000000" font-family="sans-serif" font-size="14" lengthAdjust="spacing" textLength="109" x="27.5" y="471.1">message: JSONB</text><text fill="#000000" font-family="sans-serif" font-size="14" lengthAdjust="spacing" textLength="139" x="27.5" y="487.5883">created_at: datetime</text><line style="stroke:#181818;stroke-width:0.5;" x1="22.5" x2="171.5" y1="494.5414" y2="494.5414"/></g><!--class Location--><g id="elem_Location"><rect codeLine="85" fill="#F1F1F1" height="97.4648" id="Location" rx="2.5" ry="2.5" style="stroke:#181818;stroke-width:0.5;" width="397" x="669.5" y="90.46"/><ellipse cx="834.75" cy="106.46" fill="#FFD700" rx="11" ry="11" style="stroke:#181818;stroke-width:1.0;"/><path d="M830.2212,100.5669 L832.6699,100.5669 L832.6699,105.4644 L836.5049,100.5669 L839.2773,100.5669 L835.3677,105.4478 L839.4185,112.96 L836.6958,112.96 L833.7573,107.3819 L832.6699,108.7598 L832.6699,112.96 L830.2212,112.96 Z " fill="#000000"/><text fill="#000000" font-family="sans-serif" font-size="14" lengthAdjust="spacing" textLength="58" x="855.25" y="111.751">Location</text><line style="stroke:#181818;stroke-width:0.5;" x1="670.5" x2="1065.5" y1="122.46" y2="122.46"/><text fill="#000000" font-family="sans-serif" font-size="14" lengthAdjust="spacing" textLength="158" x="675.5" y="139.9952">key = user:{id}:location</text><text fill="#000000" font-family="sans-serif" font-size="14" lengthAdjust="spacing" textLength="385" x="675.5" y="156.4834">value = street, city, state, latitude, longtitude, timestamp</text><text fill="#000000" font-family="sans-serif" font-size="14" lengthAdjust="spacing" textLength="122" x="675.5" y="172.9717">TTL = 30 seconds</text><line style="stroke:#181818;stroke-width:0.5;" x1="670.5" x2="1065.5" y1="179.9248" y2="179.9248"/></g><!--link users to patrol_profile--><g id="link_users_patrol_profile"><path codeLine="68" d="M422.46,237.57 C404.87,267.32 385.45,300.18 367.56,330.47 " fill="none" id="users-patrol_profile" style="stroke:#181818;stroke-width:1.0;"/><polygon fill="#000000" points="405.4362,280.3498,412.5681,274.058,407.5078,271.0676,405.4362,280.3498" style="stroke:#000000;stroke-width:1.0;"/><text fill="#000000" font-family="sans-serif" font-size="13" lengthAdjust="spacing" textLength="70" x="416.98" y="280.9584">has_profile</text><text fill="#000000" font-family="sans-serif" font-size="13" lengthAdjust="spacing" textLength="8" x="409.9407" y="257.9248">1</text><text fill="#000000" font-family="sans-serif" font-size="13" lengthAdjust="spacing" textLength="24" x="347.115" y="320.0089">0..1</text></g><!--link users to crime--><g id="link_users_crime"><path codeLine="69" d="M494.8,237.57 C498.51,262.01 502.54,288.55 506.42,314.04 " fill="none" id="users-crime" style="stroke:#181818;stroke-width:1.0;"/><polygon fill="#000000" points="506.9012,280.9885,508.4479,271.6046,502.6367,272.4876,506.9012,280.9885" style="stroke:#000000;stroke-width:1.0;"/><text fill="#000000" font-family="sans-serif" font-size="13" lengthAdjust="spacing" textLength="45" x="515.15" y="280.9584">reports</text><text fill="#000000" font-family="sans-serif" font-size="13" lengthAdjust="spacing" textLength="8" x="487.5931" y="257.9248">1</text><text fill="#000000" font-family="sans-serif" font-size="13" lengthAdjust="spacing" textLength="22" x="482.6175" y="303.6484">0..*</text></g><!--SRC=[pPNHRjem58RlUGetku1CQSMqYqceGm8H9jOCsWOwJTE4tCI0HuYZs66j4E- -OpjnaWMwQTh5SeCv_-_udC_soKL8LZGcIE37Y7IUR1H4c7FqXAwlKMVkl1gF1_3OgDzlNUJMxPuBbZRCDz8yUjVjAdE2WorU4sJTCYxMAV7lF0iTMgqMWgUDHlcg6u98dErKL0vGaD8TMNA1HSOFAYoVgVlPZ0U-F_amTKScSE_wC-yX3nnRvRiIB58MDLusU1XClC7GSqrakF2_5BFLhwQHSP9o6vKpQOXwQB6OZD3Nsvjl9YnzCTuH4Bb8QRm67elfv6xX0eZ2b02f7omDbnlCDyPfP4YKDAD1Ih0WuH8Bq0IGWLfsIRbm4huam-Q8PSJMD3uluq3GFHNF9nsQNA-sALNA6bEEEKdPYaR4FjIuB6lC73IkS6Eh5GsKvILmXQj6k99YIeWuGKxNr703hsOumeAAB9HAo3AegLHOl3uZ_VtUrEWfjlPlprXA4fQAEiygotmJpgWXuR1E8YYB_oU4UL5d6VuZn6HFOdKHx3-wokSWWhI7azWe7TRbqEfwwAC_cmvF90zrmqWcMCrDTHTalR7GvIMokbTNCAfV9SW2ceNvrpyzxRMbxoUuDKyEJbYZ3Mts4x1deo4AM1IHG6u_XxZfpRai6tDRvsny7LT2yu2P4UMZsSmUluDh4bQ479pcLed_2grK3BQ68abLc6dX2B-ggdiIKewsv9cN7naLi_9ENNoVF1PWMKgrWyCqz5ubsplGyDYBSeynx76K4R3eI-6eI-3eG- -OG-weGrsCcmTpFlVW5M-xK7t0uh3ecSVMJm00]--></g></svg>